<?xml version="1.0" standalone="no"?>
<!DOCTYPE svg PUBLIC "-//W3C//DTD SVG 20010904//EN"
 "http://www.w3.org/TR/2001/REC-SVG-20010904/DTD/svg10.dtd">
<svg version="1.0" xmlns="http://www.w3.org/2000/svg"
 width="157.000000pt" height="75.000000pt" viewBox="0 0 157.000000 75.000000"
 preserveAspectRatio="xMidYMid meet">

<g transform="translate(0.000000,75.000000) scale(0.100000,-0.100000)"
fill="#000000" stroke="none">
<path d="M19 731 l-23 -19 30 -261 c25 -208 35 -265 49 -281 15 -17 31 -20
101 -20 l83 0 73 -58 c104 -82 118 -91 137 -84 26 9 31 24 24 84 -5 52 -4 58
13 58 10 1 91 7 179 14 152 13 160 15 182 41 13 14 23 37 23 51 0 20 -5 24
-30 24 -19 0 -30 -5 -30 -14 0 -8 -4 -18 -10 -21 -8 -5 -304 -35 -352 -35 -32
0 -50 -30 -43 -71 4 -22 4 -39 2 -39 -3 0 -36 25 -72 55 l-68 55 -83 0 -83 0
-6 33 c-10 61 -53 432 -49 436 2 2 184 -23 406 -55 355 -52 403 -61 402 -77
-1 -13 6 -17 32 -17 31 0 34 3 34 29 0 33 -21 58 -53 66 -12 3 -193 30 -402
60 -209 30 -394 57 -411 60 -22 4 -38 0 -55 -14z"/>
<path d="M301 417 c-18 -50 -36 -98 -38 -104 -4 -9 6 -13 31 -13 25 0 36 4 36
15 0 11 11 15 40 15 29 0 40 -4 40 -15 0 -10 11 -15 35 -15 19 0 35 4 35 9 0
5 -11 40 -25 77 -49 131 -44 124 -84 124 l-36 0 -34 -93z m83 -9 c5 -24 3 -28
-14 -28 -23 0 -23 0 -10 36 12 31 15 30 24 -8z"/>
<path d="M525 485 c-14 -13 -25 -30 -25 -37 0 -28 31 -56 75 -67 25 -6 45 -16
45 -21 0 -13 -47 -13 -55 0 -9 15 -65 12 -65 -3 0 -29 27 -49 73 -54 58 -7
105 11 113 43 12 49 -10 71 -88 88 -35 8 -37 26 -3 26 14 0 25 -4 25 -10 0 -5
14 -10 31 -10 26 0 30 3 27 22 -7 50 -111 66 -153 23z"/>
<path d="M720 405 l0 -105 35 0 c30 0 35 3 35 24 0 25 23 51 38 42 5 -3 15
-19 22 -36 11 -26 17 -30 51 -30 22 0 39 2 39 5 0 3 -16 31 -35 61 l-36 55 36
42 36 42 -38 3 c-34 3 -41 -1 -75 -40 l-37 -43 -1 43 c0 41 -1 42 -35 42 l-35
0 0 -105z"/>
<path d="M997 503 c-4 -3 -7 -51 -7 -105 l0 -98 35 0 35 0 0 105 0 105 -28 0
c-16 0 -32 -3 -35 -7z"/>
<path d="M1110 405 l0 -105 30 0 c29 0 30 1 30 48 l1 47 42 -47 c31 -35 51
-48 70 -48 l27 0 0 106 0 105 -27 -3 c-26 -3 -28 -7 -31 -51 l-3 -48 -42 50
c-32 38 -49 51 -69 51 l-28 0 0 -105z"/>
<path d="M1397 495 c-31 -18 -47 -51 -47 -96 0 -37 23 -84 45 -93 26 -10 94
-7 116 4 13 7 19 7 19 0 0 -5 9 -10 20 -10 18 0 20 7 20 54 l0 54 -55 4 c-51
3 -55 2 -55 -19 0 -17 6 -23 22 -23 16 0 19 -3 11 -11 -6 -6 -23 -9 -39 -7
-26 3 -29 7 -32 41 -2 21 2 45 9 53 15 19 58 18 65 -1 4 -9 19 -15 39 -15 28
0 32 3 28 19 -13 52 -109 78 -166 46z"/>
</g>
</svg>
